<mxfile host="app.diagrams.net" agent="Mozilla/5.0 (Macintosh; Intel Mac OS X 10_15_7) AppleWebKit/537.36 (KHTML, like Gecko) Chrome/137.0.0.0 Safari/537.36" version="28.1.1">
  <diagram name="Page-1" id="b7r4wgEPCVDg86_LUd7o">
    <mxGraphModel dx="2649" dy="1150" grid="1" gridSize="10" guides="1" tooltips="1" connect="1" arrows="1" fold="1" page="1" pageScale="1" pageWidth="850" pageHeight="1100" math="0" shadow="0">
      <root>
        <mxCell id="0" />
        <mxCell id="1" parent="0" />
        <mxCell id="YUYe3_85dC7UyK1S0gOY-11" value="" style="shape=internalStorage;whiteSpace=wrap;html=1;backgroundOutline=1;dx=30;dy=30;" parent="1" vertex="1">
          <mxGeometry x="-40" y="320" width="800" height="440" as="geometry" />
        </mxCell>
        <mxCell id="YUYe3_85dC7UyK1S0gOY-1" value="kowabunga-kahuna-1" style="rounded=1;whiteSpace=wrap;html=1;fillColor=#ffe6cc;strokeColor=#d79b00;fontStyle=1" parent="1" vertex="1">
          <mxGeometry x="800" y="220" width="185" height="60" as="geometry" />
        </mxCell>
        <mxCell id="YUYe3_85dC7UyK1S0gOY-2" value="kiwi-eu-west-1" style="rounded=1;whiteSpace=wrap;html=1;fontStyle=1;fillColor=#dae8fc;strokeColor=#6c8ebf;" parent="1" vertex="1">
          <mxGeometry x="60" y="410" width="120" height="60" as="geometry" />
        </mxCell>
        <mxCell id="YUYe3_85dC7UyK1S0gOY-3" value="1.2.3.4" style="text;html=1;align=center;verticalAlign=middle;whiteSpace=wrap;rounded=0;" parent="1" vertex="1">
          <mxGeometry x="920" y="180" width="60" height="30" as="geometry" />
        </mxCell>
        <mxCell id="YUYe3_85dC7UyK1S0gOY-4" value="10.0.0.1" style="text;html=1;align=center;verticalAlign=middle;whiteSpace=wrap;rounded=0;" parent="1" vertex="1">
          <mxGeometry x="920" y="290" width="60" height="30" as="geometry" />
        </mxCell>
        <mxCell id="YUYe3_85dC7UyK1S0gOY-5" value="kowabunga.acme.com&lt;br&gt;grafana.acme.com&lt;br&gt;logs.acme.com&lt;br&gt;metrics.acme.com" style="text;html=1;align=center;verticalAlign=middle;whiteSpace=wrap;rounded=0;" parent="1" vertex="1">
          <mxGeometry x="830" y="160" width="60" height="30" as="geometry" />
        </mxCell>
        <mxCell id="YUYe3_85dC7UyK1S0gOY-7" value="kiwi-eu-west-2" style="rounded=1;whiteSpace=wrap;html=1;fontStyle=1;fillColor=#dae8fc;strokeColor=#6c8ebf;" parent="1" vertex="1">
          <mxGeometry x="200" y="410" width="120" height="60" as="geometry" />
        </mxCell>
        <mxCell id="YUYe3_85dC7UyK1S0gOY-8" value="kaktus-eu-west-a-1" style="rounded=1;whiteSpace=wrap;html=1;fontStyle=1;fillColor=#d5e8d4;strokeColor=#82b366;" parent="1" vertex="1">
          <mxGeometry x="340" y="410" width="120" height="60" as="geometry" />
        </mxCell>
        <mxCell id="YUYe3_85dC7UyK1S0gOY-9" value="kaktus-eu-west-a-2" style="rounded=1;whiteSpace=wrap;html=1;fontStyle=1;fillColor=#d5e8d4;strokeColor=#82b366;" parent="1" vertex="1">
          <mxGeometry x="481" y="411" width="120" height="60" as="geometry" />
        </mxCell>
        <mxCell id="YUYe3_85dC7UyK1S0gOY-10" value="kaktus-eu-west-a-3" style="rounded=1;whiteSpace=wrap;html=1;fontStyle=1;fillColor=#d5e8d4;strokeColor=#82b366;" parent="1" vertex="1">
          <mxGeometry x="620" y="411" width="120" height="60" as="geometry" />
        </mxCell>
        <mxCell id="YUYe3_85dC7UyK1S0gOY-12" value="" style="endArrow=none;html=1;rounded=0;" parent="1" edge="1">
          <mxGeometry width="50" height="50" relative="1" as="geometry">
            <mxPoint x="90" y="530" as="sourcePoint" />
            <mxPoint x="650" y="530" as="targetPoint" />
          </mxGeometry>
        </mxCell>
        <mxCell id="YUYe3_85dC7UyK1S0gOY-13" value="" style="endArrow=none;html=1;rounded=0;entryX=0.25;entryY=1;entryDx=0;entryDy=0;" parent="1" target="YUYe3_85dC7UyK1S0gOY-2" edge="1">
          <mxGeometry width="50" height="50" relative="1" as="geometry">
            <mxPoint x="90" y="720" as="sourcePoint" />
            <mxPoint x="450" y="370" as="targetPoint" />
          </mxGeometry>
        </mxCell>
        <mxCell id="YUYe3_85dC7UyK1S0gOY-14" value="" style="endArrow=none;html=1;rounded=0;entryX=0.25;entryY=1;entryDx=0;entryDy=0;" parent="1" target="YUYe3_85dC7UyK1S0gOY-10" edge="1">
          <mxGeometry width="50" height="50" relative="1" as="geometry">
            <mxPoint x="650" y="720" as="sourcePoint" />
            <mxPoint x="80" y="490" as="targetPoint" />
          </mxGeometry>
        </mxCell>
        <mxCell id="YUYe3_85dC7UyK1S0gOY-15" value="" style="endArrow=none;html=1;rounded=0;entryX=0.25;entryY=1;entryDx=0;entryDy=0;" parent="1" target="YUYe3_85dC7UyK1S0gOY-9" edge="1">
          <mxGeometry width="50" height="50" relative="1" as="geometry">
            <mxPoint x="510" y="720" as="sourcePoint" />
            <mxPoint x="80" y="530" as="targetPoint" />
          </mxGeometry>
        </mxCell>
        <mxCell id="YUYe3_85dC7UyK1S0gOY-16" value="" style="endArrow=none;html=1;rounded=0;entryX=0.25;entryY=1;entryDx=0;entryDy=0;" parent="1" target="YUYe3_85dC7UyK1S0gOY-7" edge="1">
          <mxGeometry width="50" height="50" relative="1" as="geometry">
            <mxPoint x="230" y="720" as="sourcePoint" />
            <mxPoint x="220" y="471" as="targetPoint" />
          </mxGeometry>
        </mxCell>
        <mxCell id="YUYe3_85dC7UyK1S0gOY-17" value="" style="endArrow=none;html=1;rounded=0;entryX=0.25;entryY=1;entryDx=0;entryDy=0;" parent="1" target="YUYe3_85dC7UyK1S0gOY-8" edge="1">
          <mxGeometry width="50" height="50" relative="1" as="geometry">
            <mxPoint x="370" y="720" as="sourcePoint" />
            <mxPoint x="220" y="520" as="targetPoint" />
          </mxGeometry>
        </mxCell>
        <mxCell id="YUYe3_85dC7UyK1S0gOY-18" value="VLAN 101" style="text;html=1;align=center;verticalAlign=middle;whiteSpace=wrap;rounded=0;fontStyle=1" parent="1" vertex="1">
          <mxGeometry x="20" y="510" width="60" height="30" as="geometry" />
        </mxCell>
        <mxCell id="YUYe3_85dC7UyK1S0gOY-19" value="&lt;i&gt;10.50.101.1 (*)&lt;/i&gt;&lt;br&gt;10.50.101.2" style="text;html=1;align=left;verticalAlign=middle;whiteSpace=wrap;rounded=0;fontStyle=0" parent="1" vertex="1">
          <mxGeometry x="100" y="500" width="90" height="30" as="geometry" />
        </mxCell>
        <mxCell id="YUYe3_85dC7UyK1S0gOY-20" value="10.50.101.3" style="text;html=1;align=center;verticalAlign=middle;whiteSpace=wrap;rounded=0;" parent="1" vertex="1">
          <mxGeometry x="240" y="500" width="60" height="30" as="geometry" />
        </mxCell>
        <mxCell id="YUYe3_85dC7UyK1S0gOY-21" value="10.50.101.11" style="text;html=1;align=center;verticalAlign=middle;whiteSpace=wrap;rounded=0;" parent="1" vertex="1">
          <mxGeometry x="380" y="500" width="60" height="30" as="geometry" />
        </mxCell>
        <mxCell id="YUYe3_85dC7UyK1S0gOY-22" value="10.50.101.12" style="text;html=1;align=center;verticalAlign=middle;whiteSpace=wrap;rounded=0;" parent="1" vertex="1">
          <mxGeometry x="520" y="500" width="60" height="30" as="geometry" />
        </mxCell>
        <mxCell id="YUYe3_85dC7UyK1S0gOY-23" value="10.50.101.13" style="text;html=1;align=center;verticalAlign=middle;whiteSpace=wrap;rounded=0;" parent="1" vertex="1">
          <mxGeometry x="660" y="500" width="60" height="30" as="geometry" />
        </mxCell>
        <mxCell id="YUYe3_85dC7UyK1S0gOY-24" value="" style="endArrow=none;html=1;rounded=0;" parent="1" edge="1">
          <mxGeometry width="50" height="50" relative="1" as="geometry">
            <mxPoint x="90" y="580" as="sourcePoint" />
            <mxPoint x="650" y="580" as="targetPoint" />
          </mxGeometry>
        </mxCell>
        <mxCell id="YUYe3_85dC7UyK1S0gOY-25" value="VLAN 102" style="text;html=1;align=center;verticalAlign=middle;whiteSpace=wrap;rounded=0;fontStyle=1" parent="1" vertex="1">
          <mxGeometry x="20" y="560" width="60" height="30" as="geometry" />
        </mxCell>
        <mxCell id="YUYe3_85dC7UyK1S0gOY-26" value="10.50.102.1 (*)&lt;br&gt;&lt;span style=&quot;font-style: normal;&quot;&gt;10.50.102.2&lt;/span&gt;" style="text;html=1;align=left;verticalAlign=middle;whiteSpace=wrap;rounded=0;fontStyle=2" parent="1" vertex="1">
          <mxGeometry x="100" y="550" width="90" height="30" as="geometry" />
        </mxCell>
        <mxCell id="YUYe3_85dC7UyK1S0gOY-27" value="10.50.102.3" style="text;html=1;align=center;verticalAlign=middle;whiteSpace=wrap;rounded=0;" parent="1" vertex="1">
          <mxGeometry x="240" y="550" width="60" height="30" as="geometry" />
        </mxCell>
        <mxCell id="YUYe3_85dC7UyK1S0gOY-28" value="10.50.102.11" style="text;html=1;align=center;verticalAlign=middle;whiteSpace=wrap;rounded=0;" parent="1" vertex="1">
          <mxGeometry x="380" y="550" width="60" height="30" as="geometry" />
        </mxCell>
        <mxCell id="YUYe3_85dC7UyK1S0gOY-29" value="10.50.102.12" style="text;html=1;align=center;verticalAlign=middle;whiteSpace=wrap;rounded=0;" parent="1" vertex="1">
          <mxGeometry x="520" y="550" width="60" height="30" as="geometry" />
        </mxCell>
        <mxCell id="YUYe3_85dC7UyK1S0gOY-30" value="10.50.102.13" style="text;html=1;align=center;verticalAlign=middle;whiteSpace=wrap;rounded=0;" parent="1" vertex="1">
          <mxGeometry x="660" y="550" width="60" height="30" as="geometry" />
        </mxCell>
        <mxCell id="YUYe3_85dC7UyK1S0gOY-31" value="" style="endArrow=none;html=1;rounded=0;" parent="1" edge="1">
          <mxGeometry width="50" height="50" relative="1" as="geometry">
            <mxPoint x="90" y="650" as="sourcePoint" />
            <mxPoint x="650" y="650" as="targetPoint" />
          </mxGeometry>
        </mxCell>
        <mxCell id="YUYe3_85dC7UyK1S0gOY-32" value="VLAN 201" style="text;html=1;align=center;verticalAlign=middle;whiteSpace=wrap;rounded=0;fontStyle=1" parent="1" vertex="1">
          <mxGeometry x="20" y="630" width="60" height="30" as="geometry" />
        </mxCell>
        <mxCell id="YUYe3_85dC7UyK1S0gOY-33" value="&lt;i&gt;10.50.201.1 (*)&lt;br&gt;&lt;/i&gt;10.50.201.2" style="text;html=1;align=left;verticalAlign=middle;whiteSpace=wrap;rounded=0;" parent="1" vertex="1">
          <mxGeometry x="100" y="620" width="90" height="30" as="geometry" />
        </mxCell>
        <mxCell id="YUYe3_85dC7UyK1S0gOY-34" value="10.50.201.3" style="text;html=1;align=center;verticalAlign=middle;whiteSpace=wrap;rounded=0;" parent="1" vertex="1">
          <mxGeometry x="240" y="620" width="60" height="30" as="geometry" />
        </mxCell>
        <mxCell id="YUYe3_85dC7UyK1S0gOY-38" value="" style="endArrow=none;html=1;rounded=0;" parent="1" edge="1">
          <mxGeometry width="50" height="50" relative="1" as="geometry">
            <mxPoint x="90" y="720" as="sourcePoint" />
            <mxPoint x="650" y="720" as="targetPoint" />
          </mxGeometry>
        </mxCell>
        <mxCell id="YUYe3_85dC7UyK1S0gOY-39" value="VLAN 209" style="text;html=1;align=center;verticalAlign=middle;whiteSpace=wrap;rounded=0;fontStyle=1" parent="1" vertex="1">
          <mxGeometry x="20" y="700" width="60" height="30" as="geometry" />
        </mxCell>
        <mxCell id="YUYe3_85dC7UyK1S0gOY-40" value="&lt;i&gt;10.50.209.1 (*)&lt;br&gt;&lt;/i&gt;10.50.209.2" style="text;html=1;align=left;verticalAlign=middle;whiteSpace=wrap;rounded=0;" parent="1" vertex="1">
          <mxGeometry x="100" y="690" width="90" height="30" as="geometry" />
        </mxCell>
        <mxCell id="YUYe3_85dC7UyK1S0gOY-41" value="10.50.209.3" style="text;html=1;align=center;verticalAlign=middle;whiteSpace=wrap;rounded=0;" parent="1" vertex="1">
          <mxGeometry x="240" y="690" width="60" height="30" as="geometry" />
        </mxCell>
        <mxCell id="YUYe3_85dC7UyK1S0gOY-43" value="[ ... ]" style="endArrow=none;html=1;rounded=0;exitX=0.5;exitY=0;exitDx=0;exitDy=0;entryX=0.5;entryY=1;entryDx=0;entryDy=0;" parent="1" source="YUYe3_85dC7UyK1S0gOY-39" target="YUYe3_85dC7UyK1S0gOY-32" edge="1">
          <mxGeometry width="50" height="50" relative="1" as="geometry">
            <mxPoint x="230" y="560" as="sourcePoint" />
            <mxPoint x="280" y="510" as="targetPoint" />
          </mxGeometry>
        </mxCell>
        <mxCell id="YUYe3_85dC7UyK1S0gOY-44" value="Region EU-WEST" style="text;html=1;align=center;verticalAlign=middle;whiteSpace=wrap;rounded=0;fontStyle=1" parent="1" vertex="1">
          <mxGeometry x="-10" y="320" width="110" height="30" as="geometry" />
        </mxCell>
        <mxCell id="YUYe3_85dC7UyK1S0gOY-45" value="Z&lt;br&gt;o&lt;br&gt;n&lt;br&gt;e&lt;br&gt;&lt;br&gt;A" style="text;html=1;align=center;verticalAlign=middle;whiteSpace=wrap;rounded=0;fontStyle=1;" parent="1" vertex="1">
          <mxGeometry x="-80" y="430" width="110" height="30" as="geometry" />
        </mxCell>
        <mxCell id="YUYe3_85dC7UyK1S0gOY-47" value="" style="edgeStyle=elbowEdgeStyle;elbow=horizontal;endArrow=classic;html=1;curved=0;rounded=0;endSize=8;startSize=8;exitX=0.5;exitY=0;exitDx=0;exitDy=0;entryX=0;entryY=0.75;entryDx=0;entryDy=0;fillColor=#f8cecc;strokeColor=#b85450;strokeWidth=3;" parent="1" source="YUYe3_85dC7UyK1S0gOY-2" target="YUYe3_85dC7UyK1S0gOY-1" edge="1">
          <mxGeometry width="50" height="50" relative="1" as="geometry">
            <mxPoint x="350" y="320" as="sourcePoint" />
            <mxPoint x="400" y="270" as="targetPoint" />
            <Array as="points">
              <mxPoint x="120" y="280" />
            </Array>
          </mxGeometry>
        </mxCell>
        <mxCell id="YUYe3_85dC7UyK1S0gOY-48" value="" style="edgeStyle=elbowEdgeStyle;elbow=horizontal;endArrow=classic;html=1;curved=0;rounded=0;endSize=8;startSize=8;exitX=0.5;exitY=0;exitDx=0;exitDy=0;entryX=0;entryY=0.75;entryDx=0;entryDy=0;fillColor=#f8cecc;strokeColor=#b85450;strokeWidth=3;" parent="1" source="YUYe3_85dC7UyK1S0gOY-7" target="YUYe3_85dC7UyK1S0gOY-1" edge="1">
          <mxGeometry width="50" height="50" relative="1" as="geometry">
            <mxPoint x="430" y="400" as="sourcePoint" />
            <mxPoint x="680" y="180" as="targetPoint" />
            <Array as="points">
              <mxPoint x="260" y="280" />
            </Array>
          </mxGeometry>
        </mxCell>
        <mxCell id="YUYe3_85dC7UyK1S0gOY-49" value="" style="edgeStyle=elbowEdgeStyle;elbow=horizontal;endArrow=classic;html=1;curved=0;rounded=0;endSize=8;startSize=8;exitX=0.5;exitY=0;exitDx=0;exitDy=0;entryX=0;entryY=0.75;entryDx=0;entryDy=0;fillColor=#f8cecc;strokeColor=#b85450;strokeWidth=3;" parent="1" source="YUYe3_85dC7UyK1S0gOY-8" target="YUYe3_85dC7UyK1S0gOY-1" edge="1">
          <mxGeometry width="50" height="50" relative="1" as="geometry">
            <mxPoint x="260" y="470" as="sourcePoint" />
            <mxPoint x="800" y="310" as="targetPoint" />
            <Array as="points">
              <mxPoint x="400" y="330" />
            </Array>
          </mxGeometry>
        </mxCell>
        <mxCell id="YUYe3_85dC7UyK1S0gOY-50" value="" style="edgeStyle=elbowEdgeStyle;elbow=horizontal;endArrow=classic;html=1;curved=0;rounded=0;endSize=8;startSize=8;exitX=0.5;exitY=0;exitDx=0;exitDy=0;entryX=0;entryY=0.75;entryDx=0;entryDy=0;strokeWidth=3;fillColor=#f8cecc;strokeColor=#b85450;" parent="1" source="YUYe3_85dC7UyK1S0gOY-9" target="YUYe3_85dC7UyK1S0gOY-1" edge="1">
          <mxGeometry width="50" height="50" relative="1" as="geometry">
            <mxPoint x="390" y="480" as="sourcePoint" />
            <mxPoint x="790" y="320" as="targetPoint" />
            <Array as="points">
              <mxPoint x="541" y="320" />
            </Array>
          </mxGeometry>
        </mxCell>
        <mxCell id="YUYe3_85dC7UyK1S0gOY-51" value="" style="edgeStyle=elbowEdgeStyle;elbow=horizontal;endArrow=classic;html=1;curved=0;rounded=0;endSize=8;startSize=8;exitX=0.5;exitY=0;exitDx=0;exitDy=0;entryX=0;entryY=0.75;entryDx=0;entryDy=0;strokeWidth=3;fillColor=#f8cecc;strokeColor=#b85450;" parent="1" source="YUYe3_85dC7UyK1S0gOY-10" target="YUYe3_85dC7UyK1S0gOY-1" edge="1">
          <mxGeometry width="50" height="50" relative="1" as="geometry">
            <mxPoint x="510" y="320" as="sourcePoint" />
            <mxPoint x="769" y="159" as="targetPoint" />
            <Array as="points">
              <mxPoint x="680" y="330" />
            </Array>
          </mxGeometry>
        </mxCell>
        <mxCell id="YUYe3_85dC7UyK1S0gOY-52" value="WSS Agent Connections" style="text;html=1;align=center;verticalAlign=middle;whiteSpace=wrap;rounded=0;fontStyle=2" parent="1" vertex="1">
          <mxGeometry x="680" y="290" width="180" height="30" as="geometry" />
        </mxCell>
        <mxCell id="YUYe3_85dC7UyK1S0gOY-54" value="" style="shape=actor;whiteSpace=wrap;html=1;" parent="1" vertex="1">
          <mxGeometry x="300" y="110" width="40" height="60" as="geometry" />
        </mxCell>
        <mxCell id="YUYe3_85dC7UyK1S0gOY-55" value="" style="edgeStyle=elbowEdgeStyle;elbow=horizontal;endArrow=classic;html=1;curved=0;rounded=0;endSize=8;startSize=8;exitX=0.5;exitY=1;exitDx=0;exitDy=0;entryX=0;entryY=0.25;entryDx=0;entryDy=0;fillColor=#e1d5e7;strokeColor=#9673a6;strokeWidth=3;" parent="1" source="YUYe3_85dC7UyK1S0gOY-54" target="YUYe3_85dC7UyK1S0gOY-1" edge="1">
          <mxGeometry width="50" height="50" relative="1" as="geometry">
            <mxPoint x="450" y="405" as="sourcePoint" />
            <mxPoint x="850" y="260" as="targetPoint" />
            <Array as="points">
              <mxPoint x="320" y="200" />
            </Array>
          </mxGeometry>
        </mxCell>
        <mxCell id="YUYe3_85dC7UyK1S0gOY-56" value="HTTPS REST API Calls" style="text;html=1;align=center;verticalAlign=middle;whiteSpace=wrap;rounded=0;fontStyle=2" parent="1" vertex="1">
          <mxGeometry x="590" y="200" width="180" height="30" as="geometry" />
        </mxCell>
        <mxCell id="YUYe3_85dC7UyK1S0gOY-57" value="Admins / Users" style="text;html=1;align=center;verticalAlign=middle;whiteSpace=wrap;rounded=0;fontStyle=2" parent="1" vertex="1">
          <mxGeometry x="230" y="80" width="180" height="30" as="geometry" />
        </mxCell>
        <mxCell id="ZijE3CbgQYK119QNmEmp-1" value="RIPE 4.5.6.0/26" style="text;html=1;align=center;verticalAlign=middle;whiteSpace=wrap;rounded=0;" vertex="1" parent="1">
          <mxGeometry x="130" y="370" width="110" height="30" as="geometry" />
        </mxCell>
        <mxCell id="ZijE3CbgQYK119QNmEmp-2" value="VLAN 0" style="text;html=1;align=center;verticalAlign=middle;whiteSpace=wrap;rounded=0;fontStyle=1" vertex="1" parent="1">
          <mxGeometry x="20" y="370" width="60" height="30" as="geometry" />
        </mxCell>
      </root>
    </mxGraphModel>
  </diagram>
</mxfile>
